<?xml version="1.0" encoding="UTF-8"?>
<svg width="700pt" height="700pt" version="1.1" viewBox="0 0 700 700" xmlns="http://www.w3.org/2000/svg" xmlns:xlink="http://www.w3.org/1999/xlink">
 <defs>
  <symbol id="o" overflow="visible">
   <path d="m29.312-1.75c-1.5117 0.78125-3.0898 1.3711-4.7344 1.7656-1.6367 0.40625-3.3398 0.60938-5.1094 0.60938-5.3125 0-9.5273-1.4844-12.641-4.4531-3.1055-2.9688-4.6562-7-4.6562-12.094s1.5508-9.125 4.6562-12.094c3.1133-2.9688 7.3281-4.4531 12.641-4.4531 1.7695 0 3.4727 0.19922 5.1094 0.59375 1.6445 0.39844 3.2227 0.99219 4.7344 1.7812v6.5938c-1.5312-1.0391-3.0391-1.8008-4.5156-2.2812-1.4805-0.48828-3.0391-0.73438-4.6719-0.73438-2.9375 0-5.2461 0.94531-6.9219 2.8281-1.6797 1.875-2.5156 4.4648-2.5156 7.7656 0 3.293 0.83594 5.8828 2.5156 7.7656 1.6758 1.875 3.9844 2.8125 6.9219 2.8125 1.6328 0 3.1914-0.23828 4.6719-0.71875 1.4766-0.48828 2.9844-1.2539 4.5156-2.2969z"/>
  </symbol>
  <symbol id="d" overflow="visible">
   <path d="m21.453-17.406c-0.67969-0.3125-1.3516-0.53906-2.0156-0.6875-0.65625-0.15625-1.3203-0.23438-1.9844-0.23438-1.9688 0-3.4844 0.63281-4.5469 1.8906-1.0547 1.2617-1.5781 3.0703-1.5781 5.4219v11.016h-7.6562v-23.922h7.6562v3.9219c0.97656-1.5625 2.1016-2.7031 3.375-3.4219 1.2812-0.71875 2.8125-1.0781 4.5938-1.0781 0.25 0 0.52344 0.011719 0.82812 0.03125 0.30078 0.023438 0.73438 0.070312 1.2969 0.14062z"/>
  </symbol>
  <symbol id="b" overflow="visible">
   <path d="m27.562-12.031v2.1875h-17.891c0.1875 1.793 0.83203 3.1367 1.9375 4.0312 1.1133 0.89844 2.6719 1.3438 4.6719 1.3438 1.6016 0 3.25-0.23438 4.9375-0.70312 1.6875-0.47656 3.4219-1.2031 5.2031-2.1719v5.8906c-1.8047 0.6875-3.6094 1.2031-5.4219 1.5469-1.8125 0.35156-3.6211 0.53125-5.4219 0.53125-4.3359 0-7.7031-1.0977-10.109-3.2969-2.3984-2.207-3.5938-5.2969-3.5938-9.2656 0-3.9062 1.1758-6.9727 3.5312-9.2031 2.3633-2.2383 5.6094-3.3594 9.7344-3.3594 3.7578 0 6.7695 1.1367 9.0312 3.4062 2.2578 2.2617 3.3906 5.2812 3.3906 9.0625zm-7.8594-2.5312c0-1.457-0.42969-2.6289-1.2812-3.5156-0.84375-0.89453-1.9492-1.3438-3.3125-1.3438-1.4922 0-2.6992 0.41797-3.625 1.25-0.91797 0.83594-1.4922 2.0391-1.7188 3.6094z"/>
  </symbol>
  <symbol id="a" overflow="visible">
   <path d="m14.391-10.766c-1.5938 0-2.793 0.27344-3.5938 0.8125-0.80469 0.54297-1.2031 1.3398-1.2031 2.3906 0 0.96875 0.32031 1.7305 0.96875 2.2812 0.64453 0.54297 1.5469 0.8125 2.7031 0.8125 1.4375 0 2.6445-0.51562 3.625-1.5469 0.98828-1.0312 1.4844-2.3203 1.4844-3.875v-0.875zm11.688-2.8906v13.656h-7.7031v-3.5469c-1.0312 1.4492-2.1875 2.5078-3.4688 3.1719s-2.8398 1-4.6719 1c-2.4805 0-4.4961-0.72266-6.0469-2.1719-1.543-1.4453-2.3125-3.3203-2.3125-5.625 0-2.8125 0.96094-4.8672 2.8906-6.1719 1.9375-1.3125 4.9688-1.9688 9.0938-1.9688h4.5156v-0.60938c0-1.207-0.48047-2.0938-1.4375-2.6562-0.94922-0.5625-2.4375-0.84375-4.4688-0.84375-1.6367 0-3.1562 0.16797-4.5625 0.5-1.4062 0.32422-2.7188 0.8125-3.9375 1.4688v-5.8281c1.6445-0.40625 3.2891-0.70703 4.9375-0.90625 1.6562-0.20703 3.3047-0.3125 4.9531-0.3125 4.3203 0 7.4375 0.85547 9.3438 2.5625 1.9141 1.6992 2.875 4.4609 2.875 8.2812z"/>
  </symbol>
  <symbol id="c" overflow="visible">
   <path d="m12.031-30.719v6.7969h7.875v5.4688h-7.875v10.141c0 1.1172 0.21875 1.8711 0.65625 2.2656 0.4375 0.38672 1.3125 0.57812 2.625 0.57812h3.9375v5.4688h-6.5625c-3.0234 0-5.1641-0.62891-6.4219-1.8906-1.2617-1.2578-1.8906-3.3984-1.8906-6.4219v-10.141h-3.7969v-5.4688h3.7969v-6.7969z"/>
  </symbol>
  <symbol id="h" overflow="visible">
   <path d="m19.953-20.422v-12.812h7.6875v33.234h-7.6875v-3.4531c-1.0547 1.4062-2.2148 2.4375-3.4844 3.0938-1.2734 0.65625-2.7422 0.98438-4.4062 0.98438-2.9492 0-5.3711-1.1719-7.2656-3.5156-1.8867-2.3438-2.8281-5.3594-2.8281-9.0469s0.94141-6.7031 2.8281-9.0469c1.8945-2.3438 4.3164-3.5156 7.2656-3.5156 1.6562 0 3.1172 0.33594 4.3906 1 1.2812 0.65625 2.4453 1.6836 3.5 3.0781zm-5.0469 15.484c1.6445 0 2.8945-0.59766 3.75-1.7969 0.86328-1.1953 1.2969-2.9297 1.2969-5.2031 0-2.2812-0.43359-4.0195-1.2969-5.2188-0.85547-1.1953-2.1055-1.7969-3.75-1.7969-1.625 0-2.8711 0.60156-3.7344 1.7969-0.85547 1.1992-1.2812 2.9375-1.2812 5.2188 0 2.2734 0.42578 4.0078 1.2812 5.2031 0.86328 1.1992 2.1094 1.7969 3.7344 1.7969z"/>
  </symbol>
  <symbol id="g" overflow="visible">
   <path d="m16.406-4.9375c1.6328 0 2.8828-0.59766 3.75-1.7969 0.86328-1.1953 1.2969-2.9297 1.2969-5.2031 0-2.2812-0.43359-4.0195-1.2969-5.2188-0.86719-1.1953-2.1172-1.7969-3.75-1.7969-1.6367 0-2.8906 0.60547-3.7656 1.8125-0.875 1.1992-1.3125 2.9336-1.3125 5.2031 0 2.2617 0.4375 3.9961 1.3125 5.2031 0.875 1.1992 2.1289 1.7969 3.7656 1.7969zm-5.0781-15.484c1.0508-1.3945 2.2188-2.4219 3.5-3.0781 1.2812-0.66406 2.7539-1 4.4219-1 2.9453 0 5.3672 1.1719 7.2656 3.5156 1.8945 2.3438 2.8438 5.3594 2.8438 9.0469s-0.94922 6.7031-2.8438 9.0469c-1.8984 2.3438-4.3203 3.5156-7.2656 3.5156-1.668 0-3.1406-0.33594-4.4219-1s-2.4492-1.6914-3.5-3.0781v3.4531h-7.6562v-33.234h7.6562z"/>
  </symbol>
  <symbol id="f" overflow="visible">
   <path d="m0.53125-23.922h7.6562l6.4219 16.234 5.4688-16.234h7.6562l-10.062 26.188c-1.0117 2.6641-2.1953 4.5234-3.5469 5.5781-1.3438 1.0625-3.1211 1.5938-5.3281 1.5938h-4.4219v-5.0156h2.3906c1.3008 0 2.2422-0.21094 2.8281-0.625 0.59375-0.40625 1.0547-1.1484 1.3906-2.2188l0.20312-0.65625z"/>
  </symbol>
  <symbol id="e" overflow="visible">
   <path d="m1.2969-31.891h7.8906l5.5156 23.172 5.4688-23.172h7.9219l5.4688 23.172 5.5156-23.172h7.8125l-7.5156 31.891h-9.4844l-5.7969-24.25-5.7188 24.25h-9.4844z"/>
  </symbol>
  <symbol id="n" overflow="visible">
   <path d="m27.734-14.562v14.562h-7.7031v-11.109c0-2.0938-0.046875-3.5312-0.14062-4.3125-0.085937-0.78125-0.24219-1.3594-0.46875-1.7344-0.30469-0.5-0.71094-0.88281-1.2188-1.1562-0.51172-0.28125-1.0938-0.42188-1.75-0.42188-1.5938 0-2.8516 0.61719-3.7656 1.8438-0.90625 1.2305-1.3594 2.9375-1.3594 5.125v11.766h-7.6562v-33.234h7.6562v12.812c1.1445-1.3945 2.3633-2.4219 3.6562-3.0781 1.3008-0.66406 2.7383-1 4.3125-1 2.7578 0 4.8516 0.85156 6.2812 2.5469 1.4375 1.6875 2.1562 4.1523 2.1562 7.3906z"/>
  </symbol>
  <symbol id="m" overflow="visible">
   <path d="m3.6719-33.234h7.6562v33.234h-7.6562z"/>
  </symbol>
  <symbol id="l" overflow="visible">
   <path d="m22.359-23.172v5.7969c-1.6367-0.67578-3.2148-1.1875-4.7344-1.5312-1.5234-0.34375-2.9609-0.51562-4.3125-0.51562-1.4609 0-2.543 0.18359-3.25 0.54688-0.69922 0.36719-1.0469 0.92188-1.0469 1.6719 0 0.61719 0.26562 1.0898 0.79688 1.4219 0.53125 0.32422 1.4883 0.5625 2.875 0.71875l1.3438 0.1875c3.9141 0.5 6.5508 1.3242 7.9062 2.4688 1.3516 1.1367 2.0312 2.9219 2.0312 5.3594 0 2.5547-0.94531 4.4688-2.8281 5.75-1.875 1.2812-4.6797 1.9219-8.4062 1.9219-1.5859 0-3.2188-0.125-4.9062-0.375s-3.4219-0.625-5.2031-1.125v-5.8125c1.5195 0.74219 3.082 1.2969 4.6875 1.6719 1.6016 0.36719 3.2344 0.54688 4.8906 0.54688 1.4883 0 2.6094-0.20312 3.3594-0.60938 0.75781-0.41406 1.1406-1.0312 1.1406-1.8438 0-0.6875-0.26172-1.1953-0.78125-1.5312-0.52344-0.33203-1.5586-0.59375-3.1094-0.78125l-1.3438-0.17188c-3.4062-0.42578-5.793-1.2109-7.1562-2.3594-1.3672-1.1562-2.0469-2.9102-2.0469-5.2656 0-2.5312 0.86719-4.4062 2.6094-5.625 1.7383-1.2266 4.3984-1.8438 7.9844-1.8438 1.4062 0 2.8828 0.10938 4.4375 0.32812 1.5508 0.21094 3.2383 0.54297 5.0625 1z"/>
  </symbol>
  <symbol id="k" overflow="visible">
   <path d="m4.0156-31.891h22.203v6.2188h-13.984v5.9375h13.141v6.2188h-13.141v13.516h-8.2188z"/>
  </symbol>
  <symbol id="j" overflow="visible">
   <path d="m23-23.172v6.2344c-1.0312-0.71875-2.0742-1.2422-3.125-1.5781-1.043-0.34375-2.125-0.51562-3.25-0.51562-2.1367 0-3.8047 0.625-5 1.875-1.1875 1.2422-1.7812 2.9805-1.7812 5.2188 0 2.2305 0.59375 3.9688 1.7812 5.2188 1.1953 1.25 2.8633 1.875 5 1.875 1.1953 0 2.332-0.17578 3.4062-0.53125 1.0703-0.36328 2.0625-0.89453 2.9688-1.5938v6.2656c-1.1875 0.4375-2.4023 0.76562-3.6406 0.98438-1.2305 0.22656-2.4648 0.34375-3.7031 0.34375-4.3125 0-7.6875-1.1094-10.125-3.3281s-3.6562-5.2969-3.6562-9.2344c0-3.9453 1.2188-7.0234 3.6562-9.2344 2.4375-2.2188 5.8125-3.3281 10.125-3.3281 1.25 0 2.4844 0.10938 3.7031 0.32812s2.4297 0.55469 3.6406 1z"/>
  </symbol>
  <symbol id="i" overflow="visible">
   <path d="m15.062-19.031c-1.6992 0-2.9961 0.60938-3.8906 1.8281-0.88672 1.2188-1.3281 2.9766-1.3281 5.2656 0 2.293 0.44141 4.0469 1.3281 5.2656 0.89453 1.2188 2.1914 1.8281 3.8906 1.8281 1.6641 0 2.9375-0.60938 3.8125-1.8281 0.88281-1.2188 1.3281-2.9727 1.3281-5.2656 0-2.2891-0.44531-4.0469-1.3281-5.2656-0.875-1.2188-2.1484-1.8281-3.8125-1.8281zm0-5.4688c4.1133 0 7.3281 1.1094 9.6406 3.3281s3.4688 5.2969 3.4688 9.2344c0 3.9297-1.1562 7.0078-3.4688 9.2344-2.3125 2.2188-5.5273 3.3281-9.6406 3.3281-4.1367 0-7.3711-1.1094-9.7031-3.3281-2.3242-2.2266-3.4844-5.3047-3.4844-9.2344 0-3.9375 1.1602-7.0156 3.4844-9.2344 2.332-2.2188 5.5664-3.3281 9.7031-3.3281z"/>
  </symbol>
 </defs>
 <g>
  <path d="m396.41 300.29c-1.8594 0-3.7422-0.28906-5.6016-0.90625-9.3477-3.0938-14.438-13.219-11.34-22.574 3.0977-9.3477 13.23-14.434 22.574-11.34 9.3477 3.0938 14.438 13.219 11.34 22.574-2.4844 7.4961-9.4805 12.246-16.973 12.246zm0.003906-26.984c-1.4023 0-2.793 0.33203-4.082 0.97266-2.1758 1.0938-3.793 2.9648-4.5586 5.2812-1.582 4.7695 1.0156 9.9375 5.7852 11.52 4.7852 1.6055 9.9375-1.0156 11.52-5.7852s-1.0156-9.9375-5.7852-11.52c-0.94141-0.30469-1.9102-0.46875-2.8789-0.46875z"/>
  <path d="m206.34 277.45c-1.8594 0-3.7422-0.28906-5.6016-0.90625-4.5273-1.4961-8.2031-4.6758-10.348-8.9375-2.1406-4.2656-2.4961-9.1094-0.99219-13.637 3.0977-9.3555 13.223-14.441 22.57-11.34 9.3477 3.0938 14.441 13.219 11.344 22.574-2.4805 7.4961-9.4805 12.246-16.973 12.246zm0.019531-26.977c-3.8203 0-7.3906 2.4258-8.6562 6.2461-0.76562 2.3164-0.58594 4.7852 0.50391 6.957 1.0938 2.1797 2.9688 3.793 5.2812 4.5625 4.7578 1.5703 9.9297-1.0234 11.52-5.7852 1.582-4.7695-1.0156-9.9375-5.7891-11.52-0.94922-0.31641-1.9102-0.46094-2.8594-0.46094z"/>
  <path d="m112.56 346c-1.8945 0-3.793-0.30859-5.6445-0.92188-4.5234-1.4961-8.1992-4.6758-10.34-8.9375-2.1445-4.2656-2.5-9.1016-0.99609-13.629 1.5-4.5391 4.6797-8.2109 8.9414-10.355 4.2656-2.1367 9.0977-2.4961 13.629-0.98438 4.5273 1.4961 8.207 4.6758 10.348 8.9375 2.1406 4.2656 2.4961 9.1016 0.99219 13.629-1.5 4.5391-4.6797 8.2109-8.9414 10.355-2.5234 1.2656-5.2461 1.9062-7.9883 1.9062zm-0.039063-26.992c-1.3984 0-2.7852 0.32422-4.0703 0.97266-2.1758 1.0859-3.7969 2.9648-4.5625 5.2812-0.76562 2.3086-0.58594 4.7773 0.50391 6.9453 1.0938 2.1797 2.9688 3.793 5.2812 4.5625 2.3047 0.76953 4.7734 0.58984 6.9531-0.50391 2.1758-1.0859 3.7969-2.9648 4.5625-5.2812 0.76562-2.3086 0.58594-4.7773-0.50391-6.957-1.0938-2.1719-2.9688-3.7852-5.2812-4.5547l-0.007813 0.003906c-0.94531-0.31641-1.9102-0.46875-2.875-0.46875z"/>
  <path d="m440.68 372.74c-1.8945 0-3.793-0.30859-5.6445-0.92188-4.5234-1.4961-8.1992-4.6758-10.34-8.9375-2.1445-4.2656-2.5-9.1016-0.99609-13.629 1.5-4.5273 4.6758-8.2031 8.9336-10.348 4.2734-2.1445 9.1094-2.5117 13.637-1h0.003906c9.3516 3.1094 14.438 13.234 11.336 22.574-1.5 4.5391-4.6797 8.2109-8.9414 10.355-2.5234 1.2656-5.2461 1.9062-7.9883 1.9062zm-0.03125-27.004c-1.4023 0-2.793 0.33203-4.0859 0.98438-2.1758 1.0938-3.793 2.9648-4.5586 5.2812-0.76562 2.3086-0.58594 4.7773 0.50391 6.9453 1.0938 2.1797 2.9688 3.793 5.2812 4.5625 2.3086 0.76953 4.7773 0.59766 6.9531-0.50391 2.1758-1.0859 3.7969-2.9648 4.5625-5.2812 1.582-4.7695-1.0117-9.9375-5.7891-11.52-0.94141-0.30469-1.9062-0.46875-2.8672-0.46875z"/>
  <path d="m587.49 311c-1.8945 0-3.793-0.30859-5.6445-0.92188-4.5234-1.4961-8.2031-4.6758-10.344-8.9375-2.1406-4.2656-2.4961-9.1016-0.99219-13.629 1.5-4.5391 4.6797-8.2109 8.9414-10.355 4.2695-2.1445 9.1016-2.4883 13.633-0.98438 4.5273 1.5039 8.1992 4.6758 10.34 8.9375 2.1445 4.2656 2.5 9.1016 0.99609 13.629-1.5 4.5391-4.6797 8.2109-8.9414 10.355-2.5234 1.2656-5.2461 1.9062-7.9883 1.9062zm-0.039062-26.992c-1.3984 0-2.7852 0.32422-4.0703 0.97266-2.1758 1.0859-3.7969 2.9648-4.5625 5.2812-0.76562 2.3086-0.58594 4.7773 0.50391 6.957 1.0938 2.1719 2.9688 3.7852 5.2812 4.5547 2.3047 0.76953 4.7734 0.59766 6.9531-0.50391 2.1758-1.0859 3.7969-2.9648 4.5625-5.2812 0.76562-2.3086 0.58594-4.7773-0.50391-6.9453-1.0938-2.1797-2.9688-3.793-5.2812-4.5625h-0.003906c-0.94531-0.32031-1.9102-0.47266-2.8789-0.47266z"/>
  <path d="m565.57 223c-1.8594 0-3.7422-0.28906-5.6016-0.90625-9.3555-3.1094-14.441-13.234-11.34-22.574 1.5-4.5273 4.6758-8.2031 8.9375-10.348 4.2578-2.1367 9.1055-2.4961 13.633-0.99219 4.5273 1.4961 8.2031 4.6758 10.348 8.9375 2.1406 4.2656 2.4961 9.1094 0.99219 13.637-2.4805 7.4961-9.4727 12.246-16.969 12.246zm0.003906-26.984c-1.4023 0-2.793 0.33203-4.082 0.97266-2.1758 1.0938-3.793 2.9648-4.5586 5.2812-1.582 4.7695 1.0117 9.9375 5.7891 11.52 4.7461 1.5898 9.9297-1.0156 11.512-5.7852 0.76562-2.3164 0.58594-4.7852-0.50391-6.957-1.0938-2.1797-2.9688-3.793-5.2812-4.5625-0.9375-0.30469-1.9062-0.46875-2.875-0.46875z"/>
  <path d="m408.58 278.79c-1.6758 0-3.2695-0.96484-3.9961-2.5898-0.98828-2.2031 0-4.793 2.2031-5.7734l7.9844-3.582c2.2148-1 4.793 0 5.7812 2.2031 0.99219 2.2031 0.003907 4.793-2.1992 5.7773l-7.9844 3.582c-0.58203 0.26562-1.1875 0.38281-1.7891 0.38281zm23.957-10.73c-1.6758 0-3.2734-0.96484-4-2.5898-0.98828-2.2031 0.003906-4.793 2.207-5.7773l7.9883-3.5703c2.2188-1.0156 4.7969 0 5.7812 2.2031 0.98828 2.2031-0.003907 4.793-2.207 5.7773l-7.9883 3.5703c-0.58203 0.26562-1.1875 0.38672-1.7812 0.38672zm23.961-10.723c-1.6758 0-3.2695-0.96484-3.9961-2.5898-0.99219-2.2031-0.003906-4.7852 2.1992-5.7773l7.9844-3.582c2.2031-1.0078 4.793 0 5.7812 2.2031 0.99219 2.2031 0.003906 4.793-2.1992 5.7773l-7.9844 3.582c-0.58203 0.26563-1.1875 0.38672-1.7852 0.38672zm23.953-10.734c-1.6758 0-3.2734-0.96484-4-2.5898-0.98828-2.2031 0.003906-4.793 2.207-5.7773l7.9883-3.5703c2.2227-1.0078 4.7969 0 5.7812 2.2031 0.98828 2.2031-0.003906 4.793-2.207 5.7773l-7.9883 3.5703c-0.57812 0.26562-1.1836 0.38672-1.7812 0.38672zm23.961-10.723c-1.6758 0-3.2695-0.96484-3.9961-2.5898-0.99219-2.2031-0.003906-4.7852 2.1992-5.7773l7.9844-3.582c2.1992-1 4.7969 0 5.7812 2.2031 0.99219 2.2031 0.003906 4.7852-2.1992 5.7773l-7.9844 3.582c-0.57812 0.26562-1.1875 0.38672-1.7852 0.38672zm23.957-10.734c-1.6758 0-3.2734-0.96484-4-2.5898-0.98828-2.2031 0.003906-4.793 2.207-5.7773l7.9844-3.5703c2.2188-1.0156 4.7969 0.007813 5.7812 2.2031 0.98828 2.2031-0.003906 4.793-2.207 5.7773l-7.9844 3.5703c-0.58203 0.26953-1.1875 0.38672-1.7812 0.38672zm24.418-10.98c-1.7227 0-3.4258-0.87891-4.1406-2.4688-0.98828-2.2031-0.31641-4.6484 1.8867-5.6406l0.62891-0.28125c2.1914-1.0156 4.7891-0.007812 5.7812 2.1953 0.99219 2.2031 0.003906 4.793-2.1992 5.7852-0.61719 0.28125-1.2891 0.41016-1.957 0.41016z"/>
  <path d="m584.74 283.41c-1.9727 0-3.7695-1.3516-4.25-3.3594l-2.043-8.5117c-0.5625-2.3398 0.88281-4.707 3.2344-5.2734 2.3438-0.51172 4.7109 0.89062 5.2773 3.2383l2.043 8.5117c0.5625 2.3398-0.88281 4.707-3.2344 5.2734-0.34375 0.085938-0.69141 0.12109-1.0273 0.12109zm-6.1289-25.523c-1.9727 0-3.7695-1.3516-4.25-3.3594l-2.043-8.5117c-0.5625-2.3398 0.88281-4.707 3.2344-5.2734 2.3594-0.5625 4.7109 0.89062 5.2773 3.2383l2.043 8.5117c0.5625 2.3398-0.88281 4.707-3.2344 5.2734-0.34375 0.085937-0.6875 0.12109-1.0273 0.12109zm-6.125-25.523c-1.9727 0-3.7695-1.3516-4.25-3.3594l-2.043-8.5117c-0.5625-2.3398 0.88281-4.707 3.2344-5.2734 2.3359-0.58203 4.7109 0.89062 5.2773 3.2383l2.043 8.5117c0.5625 2.3398-0.88281 4.707-3.2344 5.2734-0.34375 0.078124-0.69141 0.12109-1.0273 0.12109z"/>
  <path d="m468.11 347.87c-1.7031 0-3.3242-1-4.0273-2.6641-0.94141-2.2305 0.097656-4.793 2.3242-5.7422l8.0586-3.4102c2.2148-0.91406 4.793 0.10156 5.7344 2.3242 0.94141 2.2305-0.097656 4.793-2.3242 5.7422l-8.0586 3.4102c-0.55859 0.23047-1.1367 0.33984-1.707 0.33984zm24.176-10.219c-1.7031 0-3.3242-1-4.0273-2.6641-0.94141-2.2305 0.097656-4.793 2.3242-5.7422l8.0586-3.4102c2.2266-0.92188 4.793 0.10156 5.7344 2.3242 0.94141 2.2305-0.097656 4.793-2.3242 5.7422l-8.0586 3.4102c-0.55859 0.23047-1.1328 0.33984-1.707 0.33984zm24.18-10.227c-1.7031 0-3.3242-1-4.0273-2.6758-0.94141-2.2227 0.10156-4.793 2.3281-5.7344l8.0586-3.4023c2.2266-0.92188 4.7891 0.10156 5.7305 2.332 0.94141 2.2227-0.10156 4.793-2.3281 5.7344l-8.0586 3.4023c-0.55859 0.23047-1.1367 0.34375-1.7031 0.34375zm24.176-10.223c-1.7031 0-3.3242-1-4.0273-2.6641-0.94141-2.2305 0.097656-4.793 2.3242-5.7422l8.0586-3.4102c2.207-0.92188 4.793 0.09375 5.7344 2.3242 0.94141 2.2305-0.097656 4.793-2.3242 5.7422l-8.0586 3.4102c-0.55469 0.23047-1.1367 0.33984-1.707 0.33984zm24.18-10.219c-1.7031 0-3.3242-1-4.0273-2.6641-0.94141-2.2305 0.097656-4.793 2.3242-5.7422l8.0586-3.4102c2.2148-0.91406 4.793 0.10156 5.7344 2.3242 0.94141 2.2305-0.097656 4.793-2.3242 5.7422l-8.0586 3.4102c-0.55859 0.23047-1.1367 0.33984-1.707 0.33984z"/>
  <path d="m434.83 347.32c-1.4375 0-2.8398-0.69922-3.6797-2l-4.7539-7.3477c-1.3125-2.0234-0.73047-4.7344 1.2969-6.0508 2.0195-1.2969 4.7344-0.73438 6.0508 1.2969l4.7539 7.3477c1.3125 2.0234 0.73047 4.7344-1.2969 6.0508-0.73438 0.47266-1.5547 0.70312-2.3711 0.70312zm-14.262-22.035c-1.4375 0-2.8398-0.69922-3.6797-2l-4.75-7.3477c-1.3125-2.0234-0.73047-4.7344 1.2969-6.0508 2.0312-1.332 4.7344-0.73438 6.0508 1.2969l4.75 7.3477c1.3125 2.0234 0.73047 4.7344-1.2969 6.0508-0.73438 0.48047-1.5586 0.70312-2.3711 0.70312zm-14.254-22.039c-1.4375 0-2.8398-0.71094-3.6797-2l-0.89062-1.375c-1.3125-2.0352-0.73047-4.7422 1.2969-6.0508 2.0234-1.3242 4.7383-0.72656 6.0508 1.2969l0.89062 1.375c1.3125 2.0352 0.73047 4.7422-1.2969 6.0508-0.73438 0.48047-1.5625 0.70312-2.3711 0.70312z"/>
  <path d="m379.9 285.59c-0.25391 0-0.50781-0.015625-0.76563-0.070313l-8.6172-1.5195c-2.3789-0.41797-3.9688-2.6914-3.5469-5.0664 0.41406-2.375 2.6953-4.0156 5.0664-3.5469l8.6172 1.5195c2.3789 0.41797 3.9688 2.6914 3.5469 5.0664-0.37109 2.1211-2.2148 3.6172-4.3008 3.6172zm-25.848-4.5742c-0.25391 0-0.50781-0.027344-0.76953-0.070313l-8.6172-1.5312c-2.3789-0.41797-3.9648-2.6914-3.543-5.0664 0.41797-2.3828 2.6523-3.9648 5.0703-3.5469l8.6172 1.5312c2.3789 0.41797 3.9648 2.6914 3.543 5.0664-0.375 2.1328-2.2188 3.6172-4.3008 3.6172zm-25.848-4.5703c-0.25391 0-0.50781-0.027343-0.76953-0.070312l-7.3672-1.3086c-2.3789-0.41797-3.9648-2.6914-3.543-5.0664 0.41797-2.3828 2.6562-3.9648 5.0703-3.5469l7.3672 1.3086c2.3789 0.41797 3.9648 2.6914 3.543 5.0664-0.375 2.1289-2.2227 3.6172-4.3008 3.6172z"/>
  <path d="m274.66 273.44c-0.19531 0-0.39844-0.015625-0.60156-0.042969l-8.668-1.1953c-2.3906-0.32422-4.0664-2.5391-3.7344-4.9297 0.32422-2.3906 2.457-4.0234 4.9297-3.7344l8.668 1.1953c2.3906 0.32422 4.0664 2.5391 3.7344 4.9297-0.30078 2.1875-2.1758 3.7773-4.3281 3.7773zm-26.004-3.5977c-0.19922 0-0.40234-0.015625-0.60547-0.042969l-8.668-1.2031c-2.3906-0.33203-4.0625-2.5391-3.7305-4.9297 0.33203-2.4023 2.543-4.0586 4.9336-3.7344l8.668 1.2031c2.3906 0.33203 4.0625 2.5391 3.7305 4.9297-0.30469 2.1953-2.1797 3.7773-4.3281 3.7773zm-26-3.5977c-0.19922 0-0.40625-0.015626-0.60938-0.042969l-2.4414-0.34375c-2.3906-0.33203-4.0625-2.5469-3.7266-4.9375 0.33203-2.3906 2.5156-4.0156 4.9375-3.7266l2.4414 0.34375c2.3906 0.33203 4.0625 2.5469 3.7266 4.9375-0.30859 2.1875-2.1797 3.7695-4.3281 3.7695z"/>
  <path d="m123.71 323.02c-1.3281 0-2.6445-0.60547-3.5039-1.75-1.4492-1.9297-1.0586-4.6758 0.87109-6.125l7.0039-5.2539c1.9414-1.4453 4.6797-1.043 6.125 0.87891 1.4492 1.9297 1.0586 4.6758-0.87109 6.125l-7.0039 5.2539c-0.78906 0.58984-1.707 0.87109-2.6211 0.87109zm21.004-15.75c-1.3281 0-2.6445-0.60547-3.5039-1.75-1.4492-1.9297-1.0586-4.6758 0.87109-6.1172l7-5.2539c1.9336-1.4609 4.6797-1.0586 6.125 0.87109 1.4492 1.9297 1.0586 4.6758-0.87109 6.1172l-7 5.2539c-0.78516 0.59766-1.707 0.87891-2.6211 0.87891zm20.996-15.754c-1.332 0-2.6445-0.60547-3.5039-1.75-1.4531-1.9297-1.0586-4.6758 0.875-6.125l7.0039-5.2461c1.9336-1.4531 4.6758-1.0508 6.1211 0.87891 1.4531 1.9297 1.0586 4.6758-0.875 6.125l-7.0039 5.2461c-0.78516 0.58984-1.707 0.87109-2.6172 0.87109zm21.004-15.75c-1.332 0-2.6445-0.60547-3.5039-1.75-1.4531-1.9297-1.0586-4.6758 0.875-6.125l7-5.2461c1.9258-1.4531 4.6758-1.0508 6.1211 0.87891 1.4531 1.9297 1.0586 4.6758-0.875 6.125l-7 5.2461c-0.78516 0.58984-1.7031 0.87109-2.6172 0.87109z"/>
  <path d="m300.42 298.93c-17.809 0-32.297-14.484-32.297-32.293 0-17.809 14.488-32.301 32.297-32.301 17.809 0 32.297 14.492 32.297 32.301 0 17.809-14.488 32.293-32.297 32.293zm0-47.09c-8.1602 0-14.797 6.6406-14.797 14.801 0 8.1523 6.6367 14.793 14.797 14.793 8.1602 0 14.797-6.6406 14.797-14.793 0-8.1602-6.6367-14.801-14.797-14.801z"/>
  <use x="70" y="691.25" xlink:href="#o"/>
  <use x="102.109375" y="691.25" xlink:href="#d"/>
  <use x="123.683594" y="691.25" xlink:href="#b"/>
  <use x="153.355469" y="691.25" xlink:href="#a"/>
  <use x="182.878906" y="691.25" xlink:href="#c"/>
  <use x="203.792969" y="691.25" xlink:href="#b"/>
  <use x="233.464844" y="691.25" xlink:href="#h"/>
  <use x="280.011719" y="691.25" xlink:href="#g"/>
  <use x="311.328125" y="691.25" xlink:href="#f"/>
  <use x="355.078125" y="691.25" xlink:href="#e"/>
  <use x="403.335937" y="691.25" xlink:href="#n"/>
  <use x="434.484375" y="691.25" xlink:href="#a"/>
  <use x="464.007812" y="691.25" xlink:href="#m"/>
  <use x="479.003906" y="691.25" xlink:href="#b"/>
  <use x="508.675781" y="691.25" xlink:href="#l"/>
  <use x="549.945312" y="691.25" xlink:href="#k"/>
  <use x="579.832031" y="691.25" xlink:href="#a"/>
  <use x="609.355469" y="691.25" xlink:href="#j"/>
  <use x="635.289062" y="691.25" xlink:href="#c"/>
  <use x="656.203125" y="691.25" xlink:href="#i"/>
  <use x="686.257812" y="691.25" xlink:href="#d"/>
 </g>
</svg>
